<mxfile host="app.diagrams.net" agent="Mozilla/5.0 (X11; Linux x86_64) AppleWebKit/537.36 (KHTML, like Gecko) Chrome/139.0.0.0 Safari/537.36" version="28.1.2">
  <diagram name="Page-1" id="-Zn-4YGmIzxiW9U9yk5I">
    <mxGraphModel dx="821" dy="662" grid="1" gridSize="10" guides="1" tooltips="1" connect="1" arrows="1" fold="1" page="1" pageScale="1" pageWidth="850" pageHeight="1100" math="0" shadow="0">
      <root>
        <mxCell id="0" />
        <mxCell id="1" parent="0" />
        <mxCell id="rzegoNWwGoFS13lH-GTb-23" style="edgeStyle=orthogonalEdgeStyle;rounded=0;orthogonalLoop=1;jettySize=auto;html=1;exitX=0.5;exitY=0;exitDx=0;exitDy=0;" edge="1" parent="1" source="rzegoNWwGoFS13lH-GTb-3" target="rzegoNWwGoFS13lH-GTb-11">
          <mxGeometry relative="1" as="geometry" />
        </mxCell>
        <mxCell id="rzegoNWwGoFS13lH-GTb-6" value="" style="verticalLabelPosition=bottom;html=1;verticalAlign=top;align=center;strokeColor=none;fillColor=#00BEF2;shape=mxgraph.azure.mysql_database;" vertex="1" parent="1">
          <mxGeometry x="640" y="250" width="60" height="80" as="geometry" />
        </mxCell>
        <mxCell id="rzegoNWwGoFS13lH-GTb-8" value="" style="image;sketch=0;aspect=fixed;html=1;points=[];align=center;fontSize=12;image=img/lib/mscae/Cache_Redis_Product.svg;" vertex="1" parent="1">
          <mxGeometry x="175" y="134.05" width="50" height="42" as="geometry" />
        </mxCell>
        <mxCell id="rzegoNWwGoFS13lH-GTb-11" value="" style="points=[];aspect=fixed;html=1;align=center;shadow=0;dashed=0;fillColor=#FF6A00;strokeColor=none;shape=mxgraph.alibaba_cloud.elasticsearch;" vertex="1" parent="1">
          <mxGeometry x="455.19" y="121.9" width="49.61" height="54.15" as="geometry" />
        </mxCell>
        <mxCell id="rzegoNWwGoFS13lH-GTb-17" style="edgeStyle=orthogonalEdgeStyle;rounded=0;orthogonalLoop=1;jettySize=auto;html=1;exitX=1;exitY=0.5;exitDx=0;exitDy=0;exitPerimeter=0;entryX=0;entryY=0.5;entryDx=0;entryDy=0;" edge="1" parent="1" source="rzegoNWwGoFS13lH-GTb-12" target="rzegoNWwGoFS13lH-GTb-3">
          <mxGeometry relative="1" as="geometry" />
        </mxCell>
        <mxCell id="rzegoNWwGoFS13lH-GTb-12" value="" style="outlineConnect=0;dashed=0;verticalLabelPosition=bottom;verticalAlign=top;align=center;html=1;shape=mxgraph.aws3.queue;fillColor=light-dark(#000000,#D5E8D4);strokeColor=#36393d;" vertex="1" parent="1">
          <mxGeometry x="300" y="266" width="73.5" height="48" as="geometry" />
        </mxCell>
        <mxCell id="rzegoNWwGoFS13lH-GTb-16" style="edgeStyle=orthogonalEdgeStyle;rounded=0;orthogonalLoop=1;jettySize=auto;html=1;entryX=0;entryY=0.5;entryDx=0;entryDy=0;entryPerimeter=0;" edge="1" parent="1" source="rzegoNWwGoFS13lH-GTb-2" target="rzegoNWwGoFS13lH-GTb-12">
          <mxGeometry relative="1" as="geometry" />
        </mxCell>
        <mxCell id="rzegoNWwGoFS13lH-GTb-18" style="edgeStyle=orthogonalEdgeStyle;rounded=0;orthogonalLoop=1;jettySize=auto;html=1;exitX=1;exitY=0.5;exitDx=0;exitDy=0;entryX=0;entryY=0.5;entryDx=0;entryDy=0;entryPerimeter=0;" edge="1" parent="1" source="rzegoNWwGoFS13lH-GTb-3" target="rzegoNWwGoFS13lH-GTb-6">
          <mxGeometry relative="1" as="geometry" />
        </mxCell>
        <mxCell id="rzegoNWwGoFS13lH-GTb-21" style="edgeStyle=orthogonalEdgeStyle;rounded=0;orthogonalLoop=1;jettySize=auto;html=1;exitX=0.5;exitY=0;exitDx=0;exitDy=0;entryX=0.5;entryY=1.07;entryDx=0;entryDy=0;entryPerimeter=0;" edge="1" parent="1" source="rzegoNWwGoFS13lH-GTb-2" target="rzegoNWwGoFS13lH-GTb-8">
          <mxGeometry relative="1" as="geometry" />
        </mxCell>
        <mxCell id="rzegoNWwGoFS13lH-GTb-27" style="edgeStyle=orthogonalEdgeStyle;rounded=0;orthogonalLoop=1;jettySize=auto;html=1;exitX=0.5;exitY=0;exitDx=0;exitDy=0;exitPerimeter=0;" edge="1" parent="1" source="rzegoNWwGoFS13lH-GTb-24" target="rzegoNWwGoFS13lH-GTb-3">
          <mxGeometry relative="1" as="geometry" />
        </mxCell>
        <mxCell id="rzegoNWwGoFS13lH-GTb-29" style="edgeStyle=orthogonalEdgeStyle;rounded=0;orthogonalLoop=1;jettySize=auto;html=1;exitX=0.5;exitY=0;exitDx=0;exitDy=0;exitPerimeter=0;entryX=0.5;entryY=1;entryDx=0;entryDy=0;" edge="1" parent="1" source="rzegoNWwGoFS13lH-GTb-24" target="rzegoNWwGoFS13lH-GTb-2">
          <mxGeometry relative="1" as="geometry" />
        </mxCell>
        <mxCell id="rzegoNWwGoFS13lH-GTb-24" value="gateway" style="outlineConnect=0;dashed=0;verticalLabelPosition=bottom;verticalAlign=top;align=center;html=1;shape=mxgraph.aws3.api_gateway;fillColor=#D9A741;gradientColor=none;" vertex="1" parent="1">
          <mxGeometry x="310" y="460" width="63.5" height="70" as="geometry" />
        </mxCell>
        <mxCell id="rzegoNWwGoFS13lH-GTb-3" value="chat-service" style="image;aspect=fixed;perimeter=ellipsePerimeter;html=1;align=center;shadow=0;dashed=0;fontColor=#4277BB;labelBackgroundColor=default;fontSize=12;spacingTop=3;image=img/lib/ibm/infrastructure/mobile_backend.svg;verticalAlign=top;" vertex="1" parent="1">
          <mxGeometry x="450" y="260" width="60" height="60" as="geometry" />
        </mxCell>
        <mxCell id="rzegoNWwGoFS13lH-GTb-2" value="chat-creator-service" style="image;aspect=fixed;perimeter=ellipsePerimeter;html=1;align=center;shadow=0;dashed=0;fontColor=#4277BB;labelBackgroundColor=default;fontSize=12;spacingTop=3;image=img/lib/ibm/infrastructure/mobile_backend.svg;" vertex="1" parent="1">
          <mxGeometry x="170" y="260" width="60" height="60" as="geometry" />
        </mxCell>
      </root>
    </mxGraphModel>
  </diagram>
</mxfile>
